{
  "asset": {
    "version": "2.0",
    "generator": "3dpea GLTFExporter"
  },
  "scenes": [
    {
      "name": "AuxScene",
      "nodes": [
        4
      ]
    }
  ],
  "scene": 0,
  "nodes": [
    {
      "mesh": 0
    },
    {
      "mesh": 1
    },
    {
      "mesh": 2
    },
    {
      "name": "Beetle",
      "children": [
        0,
        1,
        2
      ]
    },
    {
      "name": "Beetle",
      "children": [
        3
      ]
    }
  ],
  "bufferViews": [
    {
      "buffer": 0,
      "byteOffset": 0,
      "byteLength": 92568,
      "target": 34962,
      "byteStride": 12
    },
    {
      "buffer": 0,
      "byteOffset": 92568,
      "byteLength": 92568,
      "target": 34962,
      "byteStride": 12
    },
    {
      "buffer": 0,
      "byteOffset": 185136,
      "byteLength": 88776,
      "target": 34963
    },
    {
      "buffer": 0,
      "byteOffset": 273912,
      "byteLength": 92628,
      "target": 34962,
      "byteStride": 12
    },
    {
      "buffer": 0,
      "byteOffset": 366540,
      "byteLength": 92628,
      "target": 34962,
      "byteStride": 12
    },
    {
      "buffer": 0,
      "byteOffset": 459168,
      "byteLength": 88836,
      "target": 34963
    },
    {
      "buffer": 0,
      "byteOffset": 548004,
      "byteLength": 749076,
      "target": 34962,
      "byteStride": 12
    },
    {
      "buffer": 0,
      "byteOffset": 1297080,
      "byteLength": 749076,
      "target": 34962,
      "byteStride": 12
    },
    {
      "buffer": 0,
      "byteOffset": 2046156,
      "byteLength": 701748,
      "target": 34963
    }
  ],
  "buffers": [
    {
      "byteLength": 2747904,
      "uri": "data:application/octet-stream;base64,"
    }
  ],
  "accessors": [
    {
      "bufferView": 0,
      "componentType": 5126,
      "count": 7714,
      "max": [
        -60.16332244873047,
        46.14628982543945,
        -145.83326721191406
      ],
      "min": [
        -119.1794662475586,
        -1.9633275040453757e-14,
        -307.6518859863281
      ],
      "type": "VEC3"
    },
    {
      "bufferView": 1,
      "componentType": 5126,
      "count": 7714,
      "max": [
        0.9997069835662842,
        0.9999807476997375,
        0.9995107054710388
      ],
      "min": [
        -0.9998866319656372,
        -0.999984085559845,
        -0.9999597072601318
      ],
      "type": "VEC3"
    },
    {
      "bufferView": 2,
      "componentType": 5123,
      "count": 44388,
      "max": [
        7713
      ],
      "min": [
        0
      ],
      "type": "SCALAR"
    },
    {
      "bufferView": 3,
      "componentType": 5126,
      "count": 7719,
      "max": [
        119.1794662475586,
        46.14628982543945,
        -145.83326721191406
      ],
      "min": [
        60.16332244873047,
        -1.9633275040453757e-14,
        -307.6518859863281
      ],
      "type": "VEC3"
    },
    {
      "bufferView": 4,
      "componentType": 5126,
      "count": 7719,
      "max": [
        0.9998866319656372,
        0.9999807476997375,
        0.9997266530990601
      ],
      "min": [
        -0.9997069835662842,
        -0.999984085559845,
        -0.9999597072601318
      ],
      "type": "VEC3"
    },
    {
      "bufferView": 5,
      "componentType": 5123,
      "count": 44418,
      "max": [
        7718
      ],
      "min": [
        0
      ],
      "type": "SCALAR"
    },
    {
      "bufferView": 6,
      "componentType": 5126,
      "count": 62423,
      "max": [
        166.9601287841797,
        157.5477752685547,
        0
      ],
      "min": [
        -166.9601287841797,
        -4.588869571685791,
        -639.4797973632812
      ],
      "type": "VEC3"
    },
    {
      "bufferView": 7,
      "componentType": 5126,
      "count": 62423,
      "max": [
        1,
        0.9999805092811584,
        0.9997656941413879
      ],
      "min": [
        -1,
        -0.9999979734420776,
        -0.9999666213989258
      ],
      "type": "VEC3"
    },
    {
      "bufferView": 8,
      "componentType": 5123,
      "count": 350874,
      "max": [
        62422
      ],
      "min": [
        0
      ],
      "type": "SCALAR"
    }
  ],
  "materials": [
    {
      "pbrMetallicRoughness": {
        "metallicFactor": 0,
        "roughnessFactor": 0.3
      },
      "doubleSided": true,
      "name": "Mat_1"
    },
    {
      "pbrMetallicRoughness": {
        "metallicFactor": 0,
        "roughnessFactor": 0.3
      },
      "doubleSided": true,
      "name": "Mat_2"
    },
    {
      "pbrMetallicRoughness": {
        "metallicFactor": 0,
        "roughnessFactor": 0.3
      },
      "doubleSided": true,
      "name": "Mat_3"
    }
  ],
  "meshes": [
    {
      "primitives": [
        {
          "mode": 4,
          "attributes": {
            "POSITION": 0,
            "NORMAL": 1
          },
          "indices": 2,
          "material": 0
        }
      ]
    },
    {
      "primitives": [
        {
          "mode": 4,
          "attributes": {
            "POSITION": 3,
            "NORMAL": 4
          },
          "indices": 5,
          "material": 1
        }
      ]
    },
    {
      "primitives": [
        {
          "mode": 4,
          "attributes": {
            "POSITION": 6,
            "NORMAL": 7
          },
          "indices": 8,
          "material": 2
        }
      ]
    }
  ]
}